<svg width="10" height="10" viewBox="0 0 10 10" fill="none" xmlns="http://www.w3.org/2000/svg">
<path d="M4.25176 0.669796L4.74724 0.161438C4.95704 -0.0538127 5.29628 -0.0538127 5.50385 0.161438L9.84265 4.61072C10.0525 4.82597 10.0525 5.17403 9.84265 5.38699L5.50385 9.83856C5.29405 10.0538 4.9548 10.0538 4.74724 9.83856L4.25176 9.3302C4.03973 9.11266 4.04419 8.75773 4.26069 8.54477L6.95012 5.91596H0.535655C0.238813 5.91596 0 5.67094 0 5.36638V4.63362C0 4.32906 0.238813 4.08404 0.535655 4.08404H6.95012L4.26069 1.45523C4.04196 1.24227 4.0375 0.887337 4.25176 0.669796Z" fill="black"/>
</svg>
