<svg width="14" height="15" viewBox="0 0 14 15" fill="none" xmlns="http://www.w3.org/2000/svg">
<path d="M5.90625 0H8.09375C8.45742 0 8.75 0.306331 8.75 0.687098V5.49678H11.148C11.6348 5.49678 11.8781 6.11231 11.5336 6.47303L7.37461 10.8304C7.16953 11.0451 6.8332 11.0451 6.62812 10.8304L2.46367 6.47303C2.11914 6.11231 2.3625 5.49678 2.84922 5.49678H5.25V0.687098C5.25 0.306331 5.54258 0 5.90625 0ZM14 10.7645V13.971C14 14.3518 13.7074 14.6581 13.3438 14.6581H0.65625C0.292578 14.6581 0 14.3518 0 13.971V10.7645C0 10.3838 0.292578 10.0774 0.65625 10.0774H4.66758L6.00742 11.4803C6.55703 12.0557 7.44297 12.0557 7.99258 11.4803L9.33242 10.0774H13.3438C13.7074 10.0774 14 10.3838 14 10.7645ZM10.6094 13.2839C10.6094 12.969 10.3633 12.7113 10.0625 12.7113C9.76172 12.7113 9.51562 12.969 9.51562 13.2839C9.51562 13.5988 9.76172 13.8565 10.0625 13.8565C10.3633 13.8565 10.6094 13.5988 10.6094 13.2839ZM12.3594 13.2839C12.3594 12.969 12.1133 12.7113 11.8125 12.7113C11.5117 12.7113 11.2656 12.969 11.2656 13.2839C11.2656 13.5988 11.5117 13.8565 11.8125 13.8565C12.1133 13.8565 12.3594 13.5988 12.3594 13.2839Z" fill="white"/>
</svg>
