<svg width="12" height="13" viewBox="0 0 12 13" fill="none" xmlns="http://www.w3.org/2000/svg">
<path d="M6 0C2.68548 0 0 2.90927 0 6.5C0 10.0907 2.68548 13 6 13C9.31452 13 12 10.0907 12 6.5C12 2.90927 9.31452 0 6 0ZM7.38145 9.17601L5.24758 7.49597C5.17258 7.43569 5.12903 7.34133 5.12903 7.24173V2.83065C5.12903 2.65766 5.25968 2.51613 5.41935 2.51613H6.58065C6.74032 2.51613 6.87097 2.65766 6.87097 2.83065V6.43972L8.40726 7.6506C8.5379 7.75282 8.56452 7.94939 8.47016 8.09093L7.7879 9.10786C7.69355 9.24677 7.5121 9.27823 7.38145 9.17601Z" fill="#663399"/>
</svg>
