<svg width="15" height="16" viewBox="0 0 15 16" fill="none" xmlns="http://www.w3.org/2000/svg">
<path d="M5.01714 12.8832C5.01714 12.9493 4.94758 13.0023 4.85988 13.0023C4.76008 13.0122 4.69052 12.9593 4.69052 12.8832C4.69052 12.817 4.76008 12.7641 4.84778 12.7641C4.93851 12.7541 5.01714 12.8071 5.01714 12.8832ZM4.07661 12.7343C4.05544 12.8005 4.11593 12.8766 4.20665 12.8964C4.28528 12.9295 4.37601 12.8964 4.39415 12.8302C4.4123 12.7641 4.35484 12.688 4.26411 12.6582C4.18548 12.635 4.09778 12.6681 4.07661 12.7343ZM5.41331 12.6781C5.3256 12.7012 5.26512 12.7641 5.27419 12.8402C5.28327 12.9063 5.3619 12.9493 5.45262 12.9262C5.54032 12.903 5.60081 12.8402 5.59173 12.774C5.58266 12.7111 5.50101 12.6681 5.41331 12.6781ZM7.40323 0C3.20867 0 0 3.48382 0 8.07266C0 11.7418 2.11089 14.8815 5.12601 15.9865C5.5131 16.0626 5.64919 15.8012 5.64919 15.5862C5.64919 15.3811 5.64012 14.2496 5.64012 13.5548C5.64012 13.5548 3.52319 14.0511 3.07863 12.5689C3.07863 12.5689 2.73387 11.6061 2.2379 11.358C2.2379 11.358 1.54536 10.8385 2.28629 10.8485C2.28629 10.8485 3.03931 10.9146 3.45363 11.7021C4.11593 12.9791 5.22581 12.6119 5.65827 12.3935C5.72782 11.8642 5.9244 11.4969 6.14214 11.2786C4.45161 11.0734 2.74597 10.8055 2.74597 7.62271C2.74597 6.71288 2.97581 6.25631 3.45968 5.67402C3.38105 5.45897 3.12399 4.5723 3.53831 3.42757C4.17036 3.21252 5.625 4.32086 5.625 4.32086C6.22984 4.13559 6.88004 4.03964 7.52419 4.03964C8.16835 4.03964 8.81855 4.13559 9.42339 4.32086C9.42339 4.32086 10.878 3.20921 11.5101 3.42757C11.9244 4.57561 11.6673 5.45897 11.5887 5.67402C12.0726 6.25962 12.369 6.71619 12.369 7.62271C12.369 10.8154 10.5877 11.0701 8.89718 11.2786C9.1754 11.5399 9.41129 12.0362 9.41129 12.8137C9.41129 13.9287 9.40222 15.3083 9.40222 15.5796C9.40222 15.7946 9.54133 16.056 9.9254 15.9799C12.9496 14.8815 15 11.7418 15 8.07266C15 3.48382 11.5978 0 7.40323 0ZM2.93952 11.4109C2.9002 11.444 2.90927 11.5201 2.96069 11.5829C3.00907 11.6359 3.07863 11.659 3.11794 11.616C3.15726 11.5829 3.14819 11.5069 3.09677 11.444C3.04839 11.3911 2.97883 11.3679 2.93952 11.4109ZM2.6129 11.1429C2.59173 11.1859 2.62198 11.2389 2.68246 11.272C2.73085 11.305 2.79133 11.2951 2.8125 11.2488C2.83367 11.2058 2.80343 11.1528 2.74294 11.1198C2.68246 11.0999 2.63407 11.1098 2.6129 11.1429ZM3.59274 12.3207C3.54435 12.3637 3.5625 12.463 3.63206 12.5259C3.70161 12.602 3.78931 12.6119 3.82863 12.5589C3.86794 12.5159 3.8498 12.4167 3.78931 12.3538C3.72278 12.2777 3.63206 12.2678 3.59274 12.3207ZM3.24798 11.8344C3.1996 11.8675 3.1996 11.9535 3.24798 12.0296C3.29637 12.1057 3.37802 12.1388 3.41734 12.1057C3.46573 12.0627 3.46573 11.9767 3.41734 11.9006C3.375 11.8245 3.29637 11.7914 3.24798 11.8344Z" fill="white"/>
</svg>
