<svg width="15" height="14" viewBox="0 0 15 14" fill="none" xmlns="http://www.w3.org/2000/svg">
<path d="M0.535714 3.125H14.4643C14.7602 3.125 15 2.90116 15 2.625V1.375C15 1.09884 14.7602 0.875 14.4643 0.875H0.535714C0.239833 0.875 0 1.09884 0 1.375V2.625C0 2.90116 0.239833 3.125 0.535714 3.125ZM0.535714 8.125H14.4643C14.7602 8.125 15 7.90116 15 7.625V6.375C15 6.09884 14.7602 5.875 14.4643 5.875H0.535714C0.239833 5.875 0 6.09884 0 6.375V7.625C0 7.90116 0.239833 8.125 0.535714 8.125ZM0.535714 13.125H14.4643C14.7602 13.125 15 12.9012 15 12.625V11.375C15 11.0988 14.7602 10.875 14.4643 10.875H0.535714C0.239833 10.875 0 11.0988 0 11.375V12.625C0 12.9012 0.239833 13.125 0.535714 13.125Z" fill="#663399"/>
</svg>
