<svg width="34" height="34" viewBox="0 0 34 34" fill="none" xmlns="http://www.w3.org/2000/svg">
<path d="M1.9998 31.292V31.6942H1.2032V33.2918H0.799922V31.6942H0V31.292H1.9998Z" fill="#663399"/>
<path d="M3.99717 31.292H4.39934V33.2918H3.99717V32.4919H2.80281V33.2918H2.39954V31.292H2.80281V32.0897H3.99717V31.292Z" fill="#663399"/>
<path d="M5.20284 32.8896H6.80047V33.2918H4.79956V31.292H6.80047V31.6942H5.20284V32.0897H6.80047V32.4919H5.20284V32.8896Z" fill="#663399"/>
<path d="M9.20246 32.8896H10.8001V33.2918H8.80029V31.292H9.20246V32.8896Z" fill="#663399"/>
<path d="M11.2 32.8896H11.9999V31.6942H11.2V31.292H13.1998V31.6942H12.4031V32.8896H13.1998V33.2918H11.2V32.8896Z" fill="#663399"/>
<path d="M13.5999 31.2919H14.0031V32.4829H13.5999V31.2919ZM14.0031 32.4829H14.3998V32.8862H14.0031V32.4829ZM14.3998 32.8862H14.8053V33.2884H14.402L14.3998 32.8862ZM14.8053 32.4829H15.2019V32.8862H14.8053V32.4829ZM15.2019 31.2886H15.6052V32.4829H15.2019V31.2886Z" fill="#663399"/>
<path d="M16.4028 32.8896H18.0004V33.2918H15.9995V31.292H18.0004V31.6942H16.4028V32.0897H18.0004V32.4919H16.4028V32.8896Z" fill="#663399"/>
<path d="M20.4024 32.8896H22.0001V33.2918H19.998V31.292H21.9979V31.6942H20.4024V32.8896Z" fill="#663399"/>
<path d="M24.3997 31.292V33.2918H22.3999V31.292H24.3997ZM23.9975 31.6942H22.8021V32.8896H23.9975V31.6942Z" fill="#663399"/>
<path d="M26.7996 32.8918H26.3997V33.2918H24.7998V31.292H26.3997V31.692H26.7996V32.8918ZM26.3842 31.7096H25.2163V32.8786H26.3842V31.7096Z" fill="#663399"/>
<path d="M27.6026 32.8896H29.2003V33.2918H27.1993V31.292H29.2003V31.6942H27.6026V32.0897H29.2003V32.4919H27.6026V32.8896Z" fill="#663399"/>
<path d="M31.2002 32.4919V33.2918H30.7969V32.4919H30.0025V33.2918H29.6003V31.292H31.599V32.4919H31.2002ZM30.0025 32.0897H31.2002V31.6942H30.0025V32.0897Z" fill="#663399"/>
<path d="M32.0002 32.8896H33.5979V32.4919H32.0002V31.292H34V31.6942H32.4024V32.0897H34V33.2918H32.0002V32.8896Z" fill="#663399"/>
<path opacity="0.5" d="M31.4987 13.6341L28.541 13.5479C28.39 12.7072 28.1477 11.8855 27.8184 11.0973L30.2657 9.42458C30.5907 9.2023 30.8143 8.86009 30.8872 8.47311C30.9601 8.08613 30.8765 7.68603 30.6546 7.36069L29.6381 5.87134C29.5283 5.71028 29.3877 5.57246 29.2245 5.46579C29.0614 5.35911 28.8788 5.28565 28.6872 5.24963C28.4956 5.21361 28.2987 5.21573 28.108 5.25586C27.9172 5.296 27.7362 5.37336 27.5753 5.48353L25.1325 7.15187C24.5191 6.55496 23.8414 6.02803 23.1117 5.58076L24.1061 2.80202C24.1714 2.61805 24.1999 2.423 24.1898 2.22802C24.1798 2.03304 24.1314 1.84195 24.0475 1.66567C23.9636 1.48939 23.8457 1.33138 23.7007 1.20067C23.5557 1.06995 23.3863 0.969096 23.2023 0.903864L21.5096 0.297293C21.3261 0.231662 21.1314 0.202836 20.9367 0.212461C20.7421 0.222087 20.5512 0.269976 20.375 0.353393C20.1988 0.436809 20.0408 0.554118 19.91 0.698618C19.7792 0.843118 19.6781 1.01198 19.6126 1.19555L18.6182 3.97428C17.7703 3.85806 16.9121 3.83583 16.0593 3.90799L15.2274 1.06849C15.1728 0.881506 15.0819 0.70711 14.9599 0.555264C14.8379 0.403418 14.6872 0.277099 14.5163 0.183524C14.3455 0.089949 14.1579 0.0309517 13.9643 0.00990313C13.7706 -0.0111454 13.5747 0.00616729 13.3878 0.0608521L11.6598 0.56688C11.4726 0.621694 11.298 0.71285 11.1461 0.835139C10.9941 0.957429 10.8677 1.10846 10.7742 1.2796C10.6806 1.45073 10.6217 1.63863 10.6007 1.83255C10.5798 2.02648 10.5972 2.22263 10.6521 2.40979L11.4907 5.25593C10.7365 5.65655 10.0281 6.13817 9.37822 6.69225L7.03149 4.88469C6.71983 4.64402 6.32535 4.53698 5.93479 4.58712C5.54422 4.63726 5.18957 4.84047 4.94882 5.15207L3.84395 6.57955C3.72508 6.73421 3.63784 6.91076 3.58722 7.09914C3.5366 7.28752 3.52359 7.48402 3.54894 7.67743C3.57428 7.87083 3.63748 8.05735 3.73492 8.22632C3.83237 8.3953 3.96215 8.54342 4.11685 8.66222L6.45364 10.4676C6.26604 10.8518 6.09969 11.2461 5.95535 11.6487C5.81233 12.0521 5.69135 12.463 5.59295 12.8795L2.64075 12.7933C2.24791 12.7817 1.86651 12.9264 1.58025 13.1957C1.29399 13.465 1.12624 13.8368 1.11383 14.2296L1.0608 16.0306C1.04948 16.4234 1.19426 16.8048 1.46344 17.0912C1.73263 17.3775 2.10431 17.5456 2.49712 17.5586L5.45484 17.6448C5.60835 18.4882 5.854 19.3122 6.18737 20.102L3.73457 21.7737C3.40944 21.9961 3.18589 22.3385 3.11297 22.7257C3.04006 23.1129 3.12374 23.5131 3.34566 23.8386L4.36213 25.3269C4.58421 25.6519 4.92623 25.8754 5.31303 25.9483C5.69982 26.0212 6.09975 25.9376 6.42492 25.7158L8.86777 24.0464C9.48112 24.6433 10.1589 25.1702 10.8886 25.6175L9.89419 28.3962C9.76191 28.7671 9.78221 29.1752 9.95062 29.5311C10.119 29.887 10.4218 30.1615 10.7924 30.2944L12.4895 30.9009C12.6731 30.9666 12.8677 30.9954 13.0624 30.9858C13.2571 30.9761 13.448 30.9283 13.6241 30.8448C13.8003 30.7614 13.9583 30.6441 14.0891 30.4996C14.22 30.3551 14.321 30.1863 14.3866 30.0027L15.3809 27.2239C16.2289 27.3402 17.087 27.3624 17.9398 27.2902L18.7718 30.1308C18.8825 30.5086 19.1387 30.827 19.4841 31.016C19.8295 31.2049 20.2357 31.249 20.6136 31.1385L22.3416 30.6314C22.5288 30.5765 22.7033 30.4854 22.8553 30.3631C23.0072 30.2408 23.1336 30.0898 23.2272 29.9186C23.3208 29.7475 23.3797 29.5596 23.4006 29.3657C23.4216 29.1718 23.4041 28.9756 23.3492 28.7884L22.5162 25.9423C23.2704 25.5417 23.9788 25.0601 24.6287 24.506L26.9699 26.3158C27.2817 26.5563 27.6762 26.6632 28.0668 26.6128C28.4574 26.5625 28.812 26.359 29.0525 26.0473L30.1574 24.6209C30.3967 24.3084 30.5023 23.9137 30.4509 23.5234C30.3995 23.1332 30.1954 22.7793 29.8834 22.5393L27.5466 20.734C27.9234 19.965 28.2122 19.1559 28.4073 18.3221L31.3595 18.4082C31.7523 18.4198 32.1337 18.2751 32.42 18.0059C32.7063 17.7366 32.874 17.3647 32.8864 16.9719L32.9395 15.1699C32.9461 14.9743 32.914 14.7794 32.8452 14.5963C32.7763 14.4132 32.6719 14.2455 32.538 14.1028C32.4042 13.9601 32.2435 13.8452 32.0651 13.7648C31.8868 13.6844 31.6943 13.64 31.4987 13.6341Z" fill="url(#paint0_linear)"/>
<path d="M28.3442 14.1833L26.0306 14.1159C25.9119 13.4583 25.7218 12.8155 25.4638 12.199L27.3796 10.8897C27.6338 10.7156 27.8086 10.4477 27.8656 10.1449C27.9226 9.84208 27.857 9.52901 27.6834 9.27442L26.8879 8.10989C26.8019 7.98393 26.6919 7.87614 26.5643 7.79269C26.4366 7.70925 26.2937 7.65177 26.1438 7.62356C25.9939 7.59534 25.8399 7.59694 25.6906 7.62825C25.5413 7.65956 25.3997 7.71998 25.2737 7.80605L23.3634 9.112C22.8828 8.64565 22.3527 8.23329 21.7824 7.88229L22.5558 5.70902C22.6593 5.41862 22.6433 5.099 22.5114 4.82037C22.3794 4.54174 22.1422 4.32688 21.852 4.22298L20.5261 3.74899C20.3826 3.69759 20.2303 3.67499 20.078 3.6825C19.9257 3.69 19.7764 3.72745 19.6385 3.79272C19.5007 3.85798 19.3771 3.94977 19.2748 4.06285C19.1725 4.17592 19.0935 4.30805 19.0423 4.45169L18.2689 6.62606C17.6056 6.53443 16.9341 6.51701 16.2669 6.57413L15.6161 4.35225C15.5297 4.05754 15.33 3.80908 15.0608 3.66123C14.7917 3.51339 14.4749 3.4782 14.1798 3.56337L12.8164 3.96002C12.5221 4.04694 12.274 4.24673 12.1265 4.51581C11.9789 4.7849 11.9437 5.10143 12.0286 5.39634L12.6849 7.62375C12.0933 7.93739 11.5376 8.31453 11.0276 8.7485L9.20017 7.33759C9.0795 7.24432 8.94163 7.17575 8.79444 7.13581C8.64724 7.09588 8.49362 7.08536 8.34236 7.10486C8.19109 7.12436 8.04516 7.17349 7.9129 7.24944C7.78065 7.3254 7.66467 7.42669 7.5716 7.54752L6.70981 8.66343C6.61647 8.78428 6.54786 8.92233 6.50789 9.0697C6.46793 9.21707 6.45739 9.37087 6.47688 9.52231C6.49638 9.67376 6.54552 9.81988 6.62151 9.95232C6.69749 10.0848 6.79883 10.2009 6.91973 10.2942L8.74828 11.7118C8.45431 12.3108 8.22825 12.9408 8.07431 13.59L5.76515 13.5226C5.45703 13.5137 5.15799 13.6275 4.9338 13.8391C4.70961 14.0506 4.57864 14.3426 4.56968 14.6507L4.52991 16.0638C4.52098 16.3717 4.63467 16.6706 4.84598 16.8948C5.05729 17.1189 5.34895 17.25 5.65687 17.2593L7.97046 17.3267C8.08917 17.9844 8.27922 18.6271 8.53725 19.2436L6.62031 20.5507C6.36607 20.7248 6.1913 20.9927 6.13433 21.2955C6.07737 21.5983 6.14288 21.9114 6.31647 22.166L7.11198 23.3305C7.19783 23.457 7.30781 23.5652 7.4356 23.6491C7.56338 23.7329 7.70647 23.7907 7.85664 23.8191C8.00681 23.8476 8.16112 23.8461 8.31072 23.8148C8.46031 23.7834 8.60225 23.7229 8.72839 23.6366L10.6387 22.3306C11.1193 22.797 11.6495 23.2093 12.2198 23.5603L11.4464 25.7336C11.3428 26.024 11.3588 26.3436 11.4908 26.6222C11.6227 26.9009 11.8599 27.1157 12.1502 27.2196L13.476 27.6936C13.6196 27.745 13.772 27.7677 13.9244 27.7602C14.0768 27.7527 14.2262 27.7152 14.3641 27.65C14.502 27.5847 14.6257 27.4929 14.7281 27.3798C14.8305 27.2668 14.9096 27.1346 14.9609 26.9909L15.7343 24.8166C16.3977 24.9082 17.0692 24.9256 17.7364 24.8685L18.3871 27.0904C18.4735 27.3851 18.6732 27.6335 18.9424 27.7814C19.2116 27.9292 19.5284 27.9644 19.8234 27.8792L21.1758 27.4826C21.4714 27.3957 21.7204 27.1951 21.8681 26.9247C22.0158 26.6544 22.0502 26.3364 21.9636 26.0407L21.3117 23.8144C21.9033 23.5008 22.459 23.1237 22.969 22.6897L24.8009 24.105C24.9216 24.1983 25.0596 24.2669 25.2069 24.3069C25.3541 24.3468 25.5079 24.3573 25.6592 24.3378C25.8106 24.3183 25.9566 24.2692 26.0889 24.1932C26.2213 24.1173 26.3374 24.016 26.4305 23.8951L27.2912 22.7792C27.3846 22.6583 27.4532 22.5203 27.4931 22.3729C27.5331 22.2255 27.5436 22.0717 27.5241 21.9203C27.5046 21.7689 27.4555 21.6227 27.3795 21.4903C27.3035 21.3578 27.2022 21.2417 27.0813 21.1484L25.2527 19.7364C25.3995 19.4355 25.5297 19.1268 25.6428 18.8116C25.7552 18.4964 25.85 18.1751 25.9267 17.8493L28.2359 17.9167C28.5429 17.9253 28.8408 17.8121 29.0646 17.6018C29.2884 17.3914 29.4199 17.1011 29.4302 16.7941L29.4711 15.3854C29.4764 15.2324 29.4515 15.0798 29.3976 14.9365C29.3438 14.7932 29.2622 14.6619 29.1575 14.5502C29.0527 14.4385 28.927 14.3486 28.7874 14.2856C28.6478 14.2227 28.4972 14.1879 28.3442 14.1833ZM21.1371 22.4289C21.0885 22.6886 20.9162 22.7902 20.6764 22.8046C20.4366 22.819 20.209 22.8046 19.9748 22.8046C18.0936 22.8046 16.2116 22.8046 14.329 22.8046C13.9975 22.8046 13.666 22.8267 13.3412 22.8223C12.949 22.8223 12.8352 22.6919 12.8418 22.2964C12.8551 21.4003 13.2175 20.7374 14.0793 20.375C14.4823 20.1936 14.8734 19.987 15.2504 19.7563C15.6515 19.5265 15.889 18.7752 15.7332 18.2912C15.7039 18.1999 15.6669 18.1112 15.6227 18.0261C15.1024 17.0052 15.2184 15.9356 15.4018 14.8695C15.488 14.3502 16.2492 13.8552 16.9585 13.8684C18.1253 13.8916 18.7473 14.6142 18.6611 15.5733C18.6059 16.1931 18.6026 16.8162 18.5418 17.4349C18.504 17.6744 18.4295 17.9066 18.3208 18.1233C18.1744 18.4325 18.1522 18.7861 18.2587 19.1113C18.3651 19.4364 18.5922 19.7084 18.8931 19.8712C19.3914 20.1518 19.8975 20.4236 20.388 20.712C20.9162 21.0302 21.2498 21.829 21.1371 22.4289ZM21.2874 18.5332C21.1747 18.6862 21.0303 18.8132 20.8642 18.9055C20.7836 18.9489 20.6926 18.9692 20.6012 18.9642C20.5098 18.9593 20.4216 18.9292 20.3461 18.8774C20.2707 18.8256 20.211 18.754 20.1735 18.6705C20.1361 18.5869 20.1224 18.4947 20.1339 18.4039C20.186 18.1688 20.2844 17.9465 20.4234 17.7498C20.9427 16.94 21.2565 16.0738 21.188 15.0982C21.02 12.6873 18.7727 10.4157 15.7156 11.325C13.8196 11.8885 12.9865 13.4563 12.7976 14.9214C12.6628 15.9622 12.9611 16.8925 13.5401 17.7476C13.6174 17.8581 13.7047 17.9686 13.7721 18.0923C13.9334 18.3763 13.8826 18.6448 13.6506 18.8381C13.4185 19.0315 13.1633 19.0116 12.918 18.8006C12.8101 18.7006 12.713 18.5895 12.6286 18.4691C11.6519 17.13 11.3878 15.6616 11.801 14.0552C12.3612 11.8753 14.0538 10.3207 16.2536 9.997C18.9848 9.59483 21.6586 11.4621 22.2199 14.1756C22.2994 14.5557 22.3304 14.949 22.3812 15.3324C22.3631 16.4879 21.9802 17.6082 21.2874 18.5332ZM23.5049 19.3486C23.38 19.5629 23.2452 19.7728 23.106 19.9795C22.966 20.168 22.8187 20.35 22.6641 20.5253C22.6238 20.5565 22.5818 20.5853 22.5381 20.6114C22.3271 20.7385 22.1182 20.6833 21.9359 20.533C21.7536 20.3827 21.6851 20.2082 21.7702 20.0004C21.8502 19.8095 21.951 19.6279 22.0707 19.4591C23.7822 17.0284 23.7081 13.8607 21.8498 11.6289C20.6764 10.2312 19.1495 9.50202 17.3353 9.39816C15.7493 9.30363 14.1867 9.81522 12.9637 10.8294C11.7407 11.8436 10.9487 13.2845 10.7481 14.8606C10.6251 15.7002 10.6782 16.5561 10.904 17.374C11.1298 18.192 11.5233 18.9539 12.0596 19.6115C12.2275 19.8237 12.2176 20.2988 12.0419 20.4855C11.8828 20.6534 11.3248 20.5893 11.1646 20.375C9.32502 17.9388 8.96373 15.3202 10.2421 12.5249C11.3988 9.99369 13.4208 8.65791 16.0978 8.2712C16.3876 8.23842 16.679 8.22182 16.9707 8.22148C18.8349 8.21632 20.6366 8.893 22.0365 10.1241C22.7512 10.8076 23.331 11.6194 23.7457 12.5172C24.2559 13.5473 24.5185 14.6823 24.5125 15.8318C24.4867 17.0715 24.1395 18.2833 23.5049 19.3486Z" fill="#663399"/>
<defs>
<linearGradient id="paint0_linear" x1="17.0007" y1="8.45405e-05" x2="17.0007" y2="31.1981" gradientUnits="userSpaceOnUse">
<stop stop-color="white"/>
<stop offset="0.04" stop-color="white" stop-opacity="0.92"/>
<stop offset="0.14" stop-color="white" stop-opacity="0.71"/>
<stop offset="0.26" stop-color="white" stop-opacity="0.52"/>
<stop offset="0.37" stop-color="white" stop-opacity="0.36"/>
<stop offset="0.49" stop-color="white" stop-opacity="0.23"/>
<stop offset="0.61" stop-color="white" stop-opacity="0.13"/>
<stop offset="0.73" stop-color="white" stop-opacity="0.06"/>
<stop offset="0.86" stop-color="white" stop-opacity="0.01"/>
<stop offset="1" stop-color="white" stop-opacity="0"/>
</linearGradient>
</defs>
</svg>
